<?xml version="1.0" encoding="UTF-8" standalone="no"?><svg xmlns="http://www.w3.org/2000/svg" xmlns:xlink="http://www.w3.org/1999/xlink" contentScriptType="application/ecmascript" contentStyleType="text/css" height="490px" preserveAspectRatio="none" style="width:337px;height:490px;" version="1.1" viewBox="0 0 337 490" width="337px" zoomAndPan="magnify"><defs><filter height="300%" id="f9pjl0orp5a9y" width="300%" x="-1" y="-1"><feGaussianBlur result="blurOut" stdDeviation="2.0"/><feColorMatrix in="blurOut" result="blurOut2" type="matrix" values="0 0 0 0 0 0 0 0 0 0 0 0 0 0 0 0 0 0 .4 0"/><feOffset dx="4.0" dy="4.0" in="blurOut2" result="blurOut3"/><feBlend in="SourceGraphic" in2="blurOut3" mode="normal"/></filter></defs><g><!--class Account--><rect fill="#FEFECE" filter="url(#f9pjl0orp5a9y)" height="103.3438" id="Account" style="stroke: #A80036; stroke-width: 1.5;" width="92" x="58.5" y="15"/><ellipse cx="81.15" cy="31" fill="#ADD1B2" rx="11" ry="11" style="stroke: #A80036; stroke-width: 1.0;"/><path d="M83.9156,26.875 Q84.0719,26.6563 84.2594,26.5469 Q84.4469,26.4375 84.6656,26.4375 Q85.0406,26.4375 85.275,26.6953 Q85.5094,26.9531 85.5094,27.5625 L85.5094,29.0156 Q85.5094,29.625 85.275,29.8906 Q85.0406,30.1563 84.6656,30.1563 Q84.3219,30.1563 84.1188,29.9531 Q83.9156,29.7656 83.8063,29.25 Q83.7594,28.8906 83.5719,28.7031 Q83.2438,28.3281 82.6344,28.1094 Q82.025,27.8906 81.4,27.8906 Q80.6344,27.8906 80.0016,28.2188 Q79.3688,28.5469 78.8766,29.2969 Q78.3844,30.0469 78.3844,31.0781 L78.3844,32.1719 Q78.3844,33.4063 79.275,34.2266 Q80.1656,35.0469 81.7594,35.0469 Q82.6969,35.0469 83.3531,34.7969 Q83.7438,34.6406 84.1656,34.2031 Q84.4313,33.9375 84.5797,33.8594 Q84.7281,33.7813 84.9313,33.7813 Q85.2594,33.7813 85.5172,34.0391 Q85.775,34.2969 85.775,34.6406 Q85.775,34.9844 85.4313,35.3906 Q84.9313,35.9688 84.1344,36.2969 Q83.0563,36.75 81.7594,36.75 Q80.2438,36.75 79.0406,36.125 Q78.0563,35.625 77.3688,34.5547 Q76.6813,33.4844 76.6813,32.2031 L76.6813,31.0469 Q76.6813,29.7188 77.2984,28.5703 Q77.9156,27.4219 79.0094,26.8047 Q80.1031,26.1875 81.3375,26.1875 Q82.0719,26.1875 82.7203,26.3516 Q83.3688,26.5156 83.9156,26.875 Z "/><text fill="#000000" font-family="sans-serif" font-size="12" lengthAdjust="spacingAndGlyphs" textLength="43" x="96.85" y="35.9102">Account</text><line style="stroke: #A80036; stroke-width: 1.5;" x1="59.5" x2="149.5" y1="47" y2="47"/><text fill="#000000" font-family="sans-serif" font-size="11" lengthAdjust="spacingAndGlyphs" textLength="45" x="64.5" y="62.4189">Integer ID</text><text fill="#000000" font-family="sans-serif" font-size="11" lengthAdjust="spacingAndGlyphs" textLength="54" x="64.5" y="76.2549">string Email</text><text fill="#000000" font-family="sans-serif" font-size="11" lengthAdjust="spacingAndGlyphs" textLength="66" x="64.5" y="90.0908">string Pseudo</text><text fill="#000000" font-family="sans-serif" font-size="11" lengthAdjust="spacingAndGlyphs" textLength="80" x="64.5" y="103.9268">string Password</text><line style="stroke: #A80036; stroke-width: 1.5;" x1="59.5" x2="149.5" y1="110.3438" y2="110.3438"/><!--class Profile--><rect fill="#FEFECE" filter="url(#f9pjl0orp5a9y)" height="131.0156" id="Profile" style="stroke: #A80036; stroke-width: 1.5;" width="91" x="6" y="348"/><ellipse cx="31.8" cy="364" fill="#ADD1B2" rx="11" ry="11" style="stroke: #A80036; stroke-width: 1.0;"/><path d="M34.5656,359.875 Q34.7219,359.6563 34.9094,359.5469 Q35.0969,359.4375 35.3156,359.4375 Q35.6906,359.4375 35.925,359.6953 Q36.1594,359.9531 36.1594,360.5625 L36.1594,362.0156 Q36.1594,362.625 35.925,362.8906 Q35.6906,363.1563 35.3156,363.1563 Q34.9719,363.1563 34.7688,362.9531 Q34.5656,362.7656 34.4563,362.25 Q34.4094,361.8906 34.2219,361.7031 Q33.8938,361.3281 33.2844,361.1094 Q32.675,360.8906 32.05,360.8906 Q31.2844,360.8906 30.6516,361.2188 Q30.0188,361.5469 29.5266,362.2969 Q29.0344,363.0469 29.0344,364.0781 L29.0344,365.1719 Q29.0344,366.4063 29.925,367.2266 Q30.8156,368.0469 32.4094,368.0469 Q33.3469,368.0469 34.0031,367.7969 Q34.3938,367.6406 34.8156,367.2031 Q35.0813,366.9375 35.2297,366.8594 Q35.3781,366.7813 35.5813,366.7813 Q35.9094,366.7813 36.1672,367.0391 Q36.425,367.2969 36.425,367.6406 Q36.425,367.9844 36.0813,368.3906 Q35.5813,368.9688 34.7844,369.2969 Q33.7063,369.75 32.4094,369.75 Q30.8938,369.75 29.6906,369.125 Q28.7063,368.625 28.0188,367.5547 Q27.3313,366.4844 27.3313,365.2031 L27.3313,364.0469 Q27.3313,362.7188 27.9484,361.5703 Q28.5656,360.4219 29.6594,359.8047 Q30.7531,359.1875 31.9875,359.1875 Q32.7219,359.1875 33.3703,359.3516 Q34.0188,359.5156 34.5656,359.875 Z "/><text fill="#000000" font-family="sans-serif" font-size="12" lengthAdjust="spacingAndGlyphs" textLength="35" x="48.2" y="368.9102">Profile</text><line style="stroke: #A80036; stroke-width: 1.5;" x1="7" x2="96" y1="380" y2="380"/><text fill="#000000" font-family="sans-serif" font-size="11" lengthAdjust="spacingAndGlyphs" textLength="45" x="12" y="395.4189">Integer ID</text><text fill="#000000" font-family="sans-serif" font-size="11" lengthAdjust="spacingAndGlyphs" textLength="79" x="12" y="409.2549">String FirstName</text><text fill="#000000" font-family="sans-serif" font-size="11" lengthAdjust="spacingAndGlyphs" textLength="79" x="12" y="423.0908">String LastName</text><text fill="#000000" font-family="sans-serif" font-size="11" lengthAdjust="spacingAndGlyphs" textLength="56" x="12" y="436.9268">Integer Age</text><text fill="#000000" font-family="sans-serif" font-size="11" lengthAdjust="spacingAndGlyphs" textLength="72" x="12" y="450.7627">String ImageUrl</text><text fill="#000000" font-family="sans-serif" font-size="11" lengthAdjust="spacingAndGlyphs" textLength="77" x="12" y="464.5986">Account acount</text><line style="stroke: #A80036; stroke-width: 1.5;" x1="7" x2="96" y1="471.0156" y2="471.0156"/><!--class Acount--><rect fill="#FEFECE" filter="url(#f9pjl0orp5a9y)" height="48" id="Acount" style="stroke: #A80036; stroke-width: 1.5;" width="69" x="17" y="212.5"/><ellipse cx="32" cy="228.5" fill="#ADD1B2" rx="11" ry="11" style="stroke: #A80036; stroke-width: 1.0;"/><path d="M34.7656,224.375 Q34.9219,224.1563 35.1094,224.0469 Q35.2969,223.9375 35.5156,223.9375 Q35.8906,223.9375 36.125,224.1953 Q36.3594,224.4531 36.3594,225.0625 L36.3594,226.5156 Q36.3594,227.125 36.125,227.3906 Q35.8906,227.6563 35.5156,227.6563 Q35.1719,227.6563 34.9688,227.4531 Q34.7656,227.2656 34.6563,226.75 Q34.6094,226.3906 34.4219,226.2031 Q34.0938,225.8281 33.4844,225.6094 Q32.875,225.3906 32.25,225.3906 Q31.4844,225.3906 30.8516,225.7188 Q30.2188,226.0469 29.7266,226.7969 Q29.2344,227.5469 29.2344,228.5781 L29.2344,229.6719 Q29.2344,230.9063 30.125,231.7266 Q31.0156,232.5469 32.6094,232.5469 Q33.5469,232.5469 34.2031,232.2969 Q34.5938,232.1406 35.0156,231.7031 Q35.2813,231.4375 35.4297,231.3594 Q35.5781,231.2813 35.7813,231.2813 Q36.1094,231.2813 36.3672,231.5391 Q36.625,231.7969 36.625,232.1406 Q36.625,232.4844 36.2813,232.8906 Q35.7813,233.4688 34.9844,233.7969 Q33.9063,234.25 32.6094,234.25 Q31.0938,234.25 29.8906,233.625 Q28.9063,233.125 28.2188,232.0547 Q27.5313,230.9844 27.5313,229.7031 L27.5313,228.5469 Q27.5313,227.2188 28.1484,226.0703 Q28.7656,224.9219 29.8594,224.3047 Q30.9531,223.6875 32.1875,223.6875 Q32.9219,223.6875 33.5703,223.8516 Q34.2188,224.0156 34.7656,224.375 Z "/><text fill="#000000" font-family="sans-serif" font-size="12" lengthAdjust="spacingAndGlyphs" textLength="37" x="46" y="233.4102">Acount</text><line style="stroke: #A80036; stroke-width: 1.5;" x1="18" x2="85" y1="244.5" y2="244.5"/><line style="stroke: #A80036; stroke-width: 1.5;" x1="18" x2="85" y1="252.5" y2="252.5"/><!--class PlanType--><rect fill="#FEFECE" filter="url(#f9pjl0orp5a9y)" height="61.8359" id="PlanType" style="stroke: #A80036; stroke-width: 1.5;" width="83" x="132" y="382.5"/><ellipse cx="147" cy="398.5" fill="#EB937F" rx="11" ry="11" style="stroke: #A80036; stroke-width: 1.0;"/><path d="M145.8594,399.2969 L145.8594,401.7969 L150.1875,401.7969 L150.1875,400.875 Q150.1875,400.2656 150.4297,400 Q150.6719,399.7344 151.0469,399.7344 Q151.4219,399.7344 151.6563,400 Q151.8906,400.2656 151.8906,400.875 L151.8906,403.5 L143.8906,403.5 Q143.2656,403.5 143.0078,403.2656 Q142.75,403.0313 142.75,402.6406 Q142.75,402.2656 143.0156,402.0313 Q143.2813,401.7969 143.8906,401.7969 L144.1563,401.7969 L144.1563,395.1406 L143.8906,395.1406 Q143.2656,395.1406 143.0078,394.9063 Q142.75,394.6719 142.75,394.2813 Q142.75,393.9063 143.0078,393.6719 Q143.2656,393.4375 143.8906,393.4375 L151.5156,393.4375 L151.5156,396.0313 Q151.5156,396.6406 151.2891,396.8984 Q151.0625,397.1563 150.6719,397.1563 Q150.2969,397.1563 150.0625,396.8984 Q149.8281,396.6406 149.8281,396.0313 L149.8281,395.1406 L145.8594,395.1406 L145.8594,397.5938 L147.3438,397.5938 Q147.3438,396.9375 147.4688,396.75 Q147.7344,396.3438 148.2031,396.3438 Q148.5781,396.3438 148.8125,396.6016 Q149.0469,396.8594 149.0469,397.4688 L149.0469,399.4375 Q149.0469,399.9844 148.9219,400.1719 Q148.6563,400.5625 148.2031,400.5625 Q147.7344,400.5625 147.4688,400.1563 Q147.3438,399.9688 147.3438,399.2969 L145.8594,399.2969 Z "/><text fill="#000000" font-family="sans-serif" font-size="12" lengthAdjust="spacingAndGlyphs" textLength="51" x="161" y="403.4102">PlanType</text><line style="stroke: #A80036; stroke-width: 1.5;" x1="133" x2="214" y1="414.5" y2="414.5"/><text fill="#000000" font-family="sans-serif" font-size="11" lengthAdjust="spacingAndGlyphs" textLength="17" x="138" y="429.9189">IMC</text><line style="stroke: #A80036; stroke-width: 1.5;" x1="133" x2="214" y1="436.3359" y2="436.3359"/><!--class Plan--><rect fill="#FEFECE" filter="url(#f9pjl0orp5a9y)" height="103.3438" id="Plan" style="stroke: #A80036; stroke-width: 1.5;" width="83" x="126" y="185"/><ellipse cx="152.7" cy="201" fill="#ADD1B2" rx="11" ry="11" style="stroke: #A80036; stroke-width: 1.0;"/><path d="M155.4656,196.875 Q155.6219,196.6563 155.8094,196.5469 Q155.9969,196.4375 156.2156,196.4375 Q156.5906,196.4375 156.825,196.6953 Q157.0594,196.9531 157.0594,197.5625 L157.0594,199.0156 Q157.0594,199.625 156.825,199.8906 Q156.5906,200.1563 156.2156,200.1563 Q155.8719,200.1563 155.6688,199.9531 Q155.4656,199.7656 155.3563,199.25 Q155.3094,198.8906 155.1219,198.7031 Q154.7938,198.3281 154.1844,198.1094 Q153.575,197.8906 152.95,197.8906 Q152.1844,197.8906 151.5516,198.2188 Q150.9188,198.5469 150.4266,199.2969 Q149.9344,200.0469 149.9344,201.0781 L149.9344,202.1719 Q149.9344,203.4063 150.825,204.2266 Q151.7156,205.0469 153.3094,205.0469 Q154.2469,205.0469 154.9031,204.7969 Q155.2938,204.6406 155.7156,204.2031 Q155.9813,203.9375 156.1297,203.8594 Q156.2781,203.7813 156.4813,203.7813 Q156.8094,203.7813 157.0672,204.0391 Q157.325,204.2969 157.325,204.6406 Q157.325,204.9844 156.9813,205.3906 Q156.4813,205.9688 155.6844,206.2969 Q154.6063,206.75 153.3094,206.75 Q151.7938,206.75 150.5906,206.125 Q149.6063,205.625 148.9188,204.5547 Q148.2313,203.4844 148.2313,202.2031 L148.2313,201.0469 Q148.2313,199.7188 148.8484,198.5703 Q149.4656,197.4219 150.5594,196.8047 Q151.6531,196.1875 152.8875,196.1875 Q153.6219,196.1875 154.2703,196.3516 Q154.9188,196.5156 155.4656,196.875 Z "/><text fill="#000000" font-family="sans-serif" font-size="12" lengthAdjust="spacingAndGlyphs" textLength="25" x="169.3" y="205.9102">Plan</text><line style="stroke: #A80036; stroke-width: 1.5;" x1="127" x2="208" y1="217" y2="217"/><text fill="#000000" font-family="sans-serif" font-size="11" lengthAdjust="spacingAndGlyphs" textLength="45" x="132" y="232.4189">Integer ID</text><text fill="#000000" font-family="sans-serif" font-size="11" lengthAdjust="spacingAndGlyphs" textLength="58" x="132" y="246.2549">String Name</text><text fill="#000000" font-family="sans-serif" font-size="11" lengthAdjust="spacingAndGlyphs" textLength="71" x="132" y="260.0908">PlanType Type</text><text fill="#000000" font-family="sans-serif" font-size="11" lengthAdjust="spacingAndGlyphs" textLength="63" x="132" y="273.9268">Profile Profile</text><line style="stroke: #A80036; stroke-width: 1.5;" x1="127" x2="208" y1="280.3438" y2="280.3438"/><!--class TraitType--><rect fill="#FEFECE" filter="url(#f9pjl0orp5a9y)" height="75.6719" id="TraitType" style="stroke: #A80036; stroke-width: 1.5;" width="82" x="244.5" y="198.5"/><ellipse cx="259.5" cy="214.5" fill="#EB937F" rx="11" ry="11" style="stroke: #A80036; stroke-width: 1.0;"/><path d="M258.3594,215.2969 L258.3594,217.7969 L262.6875,217.7969 L262.6875,216.875 Q262.6875,216.2656 262.9297,216 Q263.1719,215.7344 263.5469,215.7344 Q263.9219,215.7344 264.1563,216 Q264.3906,216.2656 264.3906,216.875 L264.3906,219.5 L256.3906,219.5 Q255.7656,219.5 255.5078,219.2656 Q255.25,219.0313 255.25,218.6406 Q255.25,218.2656 255.5156,218.0313 Q255.7813,217.7969 256.3906,217.7969 L256.6563,217.7969 L256.6563,211.1406 L256.3906,211.1406 Q255.7656,211.1406 255.5078,210.9063 Q255.25,210.6719 255.25,210.2813 Q255.25,209.9063 255.5078,209.6719 Q255.7656,209.4375 256.3906,209.4375 L264.0156,209.4375 L264.0156,212.0313 Q264.0156,212.6406 263.7891,212.8984 Q263.5625,213.1563 263.1719,213.1563 Q262.7969,213.1563 262.5625,212.8984 Q262.3281,212.6406 262.3281,212.0313 L262.3281,211.1406 L258.3594,211.1406 L258.3594,213.5938 L259.8438,213.5938 Q259.8438,212.9375 259.9688,212.75 Q260.2344,212.3438 260.7031,212.3438 Q261.0781,212.3438 261.3125,212.6016 Q261.5469,212.8594 261.5469,213.4688 L261.5469,215.4375 Q261.5469,215.9844 261.4219,216.1719 Q261.1563,216.5625 260.7031,216.5625 Q260.2344,216.5625 259.9688,216.1563 Q259.8438,215.9688 259.8438,215.2969 L258.3594,215.2969 Z "/><text fill="#000000" font-family="sans-serif" font-size="12" lengthAdjust="spacingAndGlyphs" textLength="50" x="273.5" y="219.4102">TraitType</text><line style="stroke: #A80036; stroke-width: 1.5;" x1="245.5" x2="325.5" y1="230.5" y2="230.5"/><text fill="#000000" font-family="sans-serif" font-size="11" lengthAdjust="spacingAndGlyphs" textLength="30" x="250.5" y="245.9189">POIDS</text><text fill="#000000" font-family="sans-serif" font-size="11" lengthAdjust="spacingAndGlyphs" textLength="34" x="250.5" y="259.7549">TAILLE</text><line style="stroke: #A80036; stroke-width: 1.5;" x1="245.5" x2="325.5" y1="266.1719" y2="266.1719"/><!--class Trait--><rect fill="#FEFECE" filter="url(#f9pjl0orp5a9y)" height="117.1797" id="Trait" style="stroke: #A80036; stroke-width: 1.5;" width="82" x="185.5" y="8"/><ellipse cx="212.2" cy="24" fill="#ADD1B2" rx="11" ry="11" style="stroke: #A80036; stroke-width: 1.0;"/><path d="M214.9656,19.875 Q215.1219,19.6563 215.3094,19.5469 Q215.4969,19.4375 215.7156,19.4375 Q216.0906,19.4375 216.325,19.6953 Q216.5594,19.9531 216.5594,20.5625 L216.5594,22.0156 Q216.5594,22.625 216.325,22.8906 Q216.0906,23.1563 215.7156,23.1563 Q215.3719,23.1563 215.1688,22.9531 Q214.9656,22.7656 214.8563,22.25 Q214.8094,21.8906 214.6219,21.7031 Q214.2938,21.3281 213.6844,21.1094 Q213.075,20.8906 212.45,20.8906 Q211.6844,20.8906 211.0516,21.2188 Q210.4188,21.5469 209.9266,22.2969 Q209.4344,23.0469 209.4344,24.0781 L209.4344,25.1719 Q209.4344,26.4063 210.325,27.2266 Q211.2156,28.0469 212.8094,28.0469 Q213.7469,28.0469 214.4031,27.7969 Q214.7938,27.6406 215.2156,27.2031 Q215.4813,26.9375 215.6297,26.8594 Q215.7781,26.7813 215.9813,26.7813 Q216.3094,26.7813 216.5672,27.0391 Q216.825,27.2969 216.825,27.6406 Q216.825,27.9844 216.4813,28.3906 Q215.9813,28.9688 215.1844,29.2969 Q214.1063,29.75 212.8094,29.75 Q211.2938,29.75 210.0906,29.125 Q209.1063,28.625 208.4188,27.5547 Q207.7313,26.4844 207.7313,25.2031 L207.7313,24.0469 Q207.7313,22.7188 208.3484,21.5703 Q208.9656,20.4219 210.0594,19.8047 Q211.1531,19.1875 212.3875,19.1875 Q213.1219,19.1875 213.7703,19.3516 Q214.4188,19.5156 214.9656,19.875 Z "/><text fill="#000000" font-family="sans-serif" font-size="12" lengthAdjust="spacingAndGlyphs" textLength="24" x="228.8" y="28.9102">Trait</text><line style="stroke: #A80036; stroke-width: 1.5;" x1="186.5" x2="266.5" y1="40" y2="40"/><text fill="#000000" font-family="sans-serif" font-size="11" lengthAdjust="spacingAndGlyphs" textLength="45" x="191.5" y="55.4189">Integer ID</text><text fill="#000000" font-family="sans-serif" font-size="11" lengthAdjust="spacingAndGlyphs" textLength="57" x="191.5" y="69.2549">String value</text><text fill="#000000" font-family="sans-serif" font-size="11" lengthAdjust="spacingAndGlyphs" textLength="70" x="191.5" y="83.0908">TratType Type</text><text fill="#000000" font-family="sans-serif" font-size="11" lengthAdjust="spacingAndGlyphs" textLength="69" x="191.5" y="96.9268">DateTime Date</text><text fill="#000000" font-family="sans-serif" font-size="11" lengthAdjust="spacingAndGlyphs" textLength="43" x="191.5" y="110.7627">Plan Plan</text><line style="stroke: #A80036; stroke-width: 1.5;" x1="186.5" x2="266.5" y1="117.1797" y2="117.1797"/><!--link Acount to Profile--><path d="M51.5,260.739 C51.5,282.867 51.5,317.215 51.5,347.641 " fill="none" id="Acount-Profile" style="stroke: #A80036; stroke-width: 1.0;"/><!--link Plan to PlanType--><path d="M169.235,288.117 C170.281,318.603 171.577,356.4 172.464,382.2763 " fill="none" id="Plan-PlanType" style="stroke: #A80036; stroke-width: 1.0;"/><!--link Plan to Profile--><path d="M133.948,288.117 C121.569,306.792 107.372,328.211 94.2861,347.952 " fill="none" id="Plan-Profile" style="stroke: #A80036; stroke-width: 1.0;"/><!--link Trait to TraitType--><path d="M246.804,125.316 C255.304,149.519 264.936,176.945 272.464,198.38 " fill="none" id="Trait-TraitType" style="stroke: #A80036; stroke-width: 1.0;"/><!--link Trait to Plan--><path d="M206.196,125.316 C199.396,144.679 191.871,166.104 185.279,184.874 " fill="none" id="Trait-Plan" style="stroke: #A80036; stroke-width: 1.0;"/><!--
@startuml

class Account
{
	Integer ID
	string Email
	string Pseudo
	string Password
}

class Profile
{
	Integer ID
	String FirstName
	String LastName
	Integer Age
	String ImageUrl
	Account acount
}

Acount - - Profile

enum PlanType
{
	IMC
}

class Plan
{
	Integer ID
	String Name
	PlanType Type
	Profile Profile
}

Plan - - PlanType
Plan - - Profile

enum TraitType
{
	POIDS
	TAILLE
}

class Trait
{ 
	Integer ID
	String value
	TratType Type
	DateTime Date
	Plan Plan
}

Trait - - TraitType
Trait - - Plan

@enduml

PlantUML version 1.2019.09(Mon Aug 26 18:19:51 CEST 2019)
(GPL source distribution)
Java Runtime: Java(TM) SE Runtime Environment
JVM: Java HotSpot(TM) Client VM
Java Version: 1.8.0_231-b11
Operating System: Windows 10
OS Version: 10.0
Default Encoding: Cp1252
Language: fr
Country: FR
--></g></svg>