<?xml version="1.0" encoding="UTF-8" standalone="no"?><svg xmlns="http://www.w3.org/2000/svg" xmlns:xlink="http://www.w3.org/1999/xlink" contentScriptType="application/ecmascript" contentStyleType="text/css" height="490px" preserveAspectRatio="none" style="width:345px;height:490px;" version="1.1" viewBox="0 0 345 490" width="345px" zoomAndPan="magnify"><defs><filter height="300%" id="f101tsczhpmlip" width="300%" x="-1" y="-1"><feGaussianBlur result="blurOut" stdDeviation="2.0"/><feColorMatrix in="blurOut" result="blurOut2" type="matrix" values="0 0 0 0 0 0 0 0 0 0 0 0 0 0 0 0 0 0 .4 0"/><feOffset dx="4.0" dy="4.0" in="blurOut2" result="blurOut3"/><feBlend in="SourceGraphic" in2="blurOut3" mode="normal"/></filter></defs><g><!--class Account--><rect fill="#FEFECE" filter="url(#f101tsczhpmlip)" height="103.3438" id="Account" style="stroke: #A80036; stroke-width: 1.5;" width="92" x="6" y="185"/><ellipse cx="28.65" cy="201" fill="#ADD1B2" rx="11" ry="11" style="stroke: #A80036; stroke-width: 1.0;"/><path d="M31.4156,196.875 Q31.5719,196.6563 31.7594,196.5469 Q31.9469,196.4375 32.1656,196.4375 Q32.5406,196.4375 32.775,196.6953 Q33.0094,196.9531 33.0094,197.5625 L33.0094,199.0156 Q33.0094,199.625 32.775,199.8906 Q32.5406,200.1563 32.1656,200.1563 Q31.8219,200.1563 31.6188,199.9531 Q31.4156,199.7656 31.3063,199.25 Q31.2594,198.8906 31.0719,198.7031 Q30.7438,198.3281 30.1344,198.1094 Q29.525,197.8906 28.9,197.8906 Q28.1344,197.8906 27.5016,198.2188 Q26.8688,198.5469 26.3766,199.2969 Q25.8844,200.0469 25.8844,201.0781 L25.8844,202.1719 Q25.8844,203.4063 26.775,204.2266 Q27.6656,205.0469 29.2594,205.0469 Q30.1969,205.0469 30.8531,204.7969 Q31.2438,204.6406 31.6656,204.2031 Q31.9313,203.9375 32.0797,203.8594 Q32.2281,203.7813 32.4313,203.7813 Q32.7594,203.7813 33.0172,204.0391 Q33.275,204.2969 33.275,204.6406 Q33.275,204.9844 32.9313,205.3906 Q32.4313,205.9688 31.6344,206.2969 Q30.5563,206.75 29.2594,206.75 Q27.7438,206.75 26.5406,206.125 Q25.5563,205.625 24.8688,204.5547 Q24.1813,203.4844 24.1813,202.2031 L24.1813,201.0469 Q24.1813,199.7188 24.7984,198.5703 Q25.4156,197.4219 26.5094,196.8047 Q27.6031,196.1875 28.8375,196.1875 Q29.5719,196.1875 30.2203,196.3516 Q30.8688,196.5156 31.4156,196.875 Z "/><text fill="#000000" font-family="sans-serif" font-size="12" lengthAdjust="spacingAndGlyphs" textLength="43" x="44.35" y="205.9102">Account</text><line style="stroke: #A80036; stroke-width: 1.5;" x1="7" x2="97" y1="217" y2="217"/><text fill="#000000" font-family="sans-serif" font-size="11" lengthAdjust="spacingAndGlyphs" textLength="45" x="12" y="232.4189">Integer ID</text><text fill="#000000" font-family="sans-serif" font-size="11" lengthAdjust="spacingAndGlyphs" textLength="54" x="12" y="246.2549">string Email</text><text fill="#000000" font-family="sans-serif" font-size="11" lengthAdjust="spacingAndGlyphs" textLength="66" x="12" y="260.0908">string Pseudo</text><text fill="#000000" font-family="sans-serif" font-size="11" lengthAdjust="spacingAndGlyphs" textLength="80" x="12" y="273.9268">string Password</text><line style="stroke: #A80036; stroke-width: 1.5;" x1="7" x2="97" y1="280.3438" y2="280.3438"/><!--class Profile--><rect fill="#FEFECE" filter="url(#f101tsczhpmlip)" height="131.0156" id="Profile" style="stroke: #A80036; stroke-width: 1.5;" width="91" x="7.5" y="348"/><ellipse cx="33.3" cy="364" fill="#ADD1B2" rx="11" ry="11" style="stroke: #A80036; stroke-width: 1.0;"/><path d="M36.0656,359.875 Q36.2219,359.6563 36.4094,359.5469 Q36.5969,359.4375 36.8156,359.4375 Q37.1906,359.4375 37.425,359.6953 Q37.6594,359.9531 37.6594,360.5625 L37.6594,362.0156 Q37.6594,362.625 37.425,362.8906 Q37.1906,363.1563 36.8156,363.1563 Q36.4719,363.1563 36.2688,362.9531 Q36.0656,362.7656 35.9563,362.25 Q35.9094,361.8906 35.7219,361.7031 Q35.3938,361.3281 34.7844,361.1094 Q34.175,360.8906 33.55,360.8906 Q32.7844,360.8906 32.1516,361.2188 Q31.5187,361.5469 31.0266,362.2969 Q30.5344,363.0469 30.5344,364.0781 L30.5344,365.1719 Q30.5344,366.4063 31.425,367.2266 Q32.3156,368.0469 33.9094,368.0469 Q34.8469,368.0469 35.5031,367.7969 Q35.8938,367.6406 36.3156,367.2031 Q36.5813,366.9375 36.7297,366.8594 Q36.8781,366.7813 37.0813,366.7813 Q37.4094,366.7813 37.6672,367.0391 Q37.925,367.2969 37.925,367.6406 Q37.925,367.9844 37.5813,368.3906 Q37.0813,368.9688 36.2844,369.2969 Q35.2063,369.75 33.9094,369.75 Q32.3938,369.75 31.1906,369.125 Q30.2062,368.625 29.5187,367.5547 Q28.8312,366.4844 28.8312,365.2031 L28.8312,364.0469 Q28.8312,362.7188 29.4484,361.5703 Q30.0656,360.4219 31.1594,359.8047 Q32.2531,359.1875 33.4875,359.1875 Q34.2219,359.1875 34.8703,359.3516 Q35.5188,359.5156 36.0656,359.875 Z "/><text fill="#000000" font-family="sans-serif" font-size="12" lengthAdjust="spacingAndGlyphs" textLength="35" x="49.7" y="368.9102">Profile</text><line style="stroke: #A80036; stroke-width: 1.5;" x1="8.5" x2="97.5" y1="380" y2="380"/><text fill="#000000" font-family="sans-serif" font-size="11" lengthAdjust="spacingAndGlyphs" textLength="45" x="13.5" y="395.4189">Integer ID</text><text fill="#000000" font-family="sans-serif" font-size="11" lengthAdjust="spacingAndGlyphs" textLength="79" x="13.5" y="409.2549">String FirstName</text><text fill="#000000" font-family="sans-serif" font-size="11" lengthAdjust="spacingAndGlyphs" textLength="79" x="13.5" y="423.0908">String LastName</text><text fill="#000000" font-family="sans-serif" font-size="11" lengthAdjust="spacingAndGlyphs" textLength="56" x="13.5" y="436.9268">Integer Age</text><text fill="#000000" font-family="sans-serif" font-size="11" lengthAdjust="spacingAndGlyphs" textLength="72" x="13.5" y="450.7627">String ImageUrl</text><text fill="#000000" font-family="sans-serif" font-size="11" lengthAdjust="spacingAndGlyphs" textLength="77" x="13.5" y="464.5986">Account acount</text><line style="stroke: #A80036; stroke-width: 1.5;" x1="8.5" x2="97.5" y1="471.0156" y2="471.0156"/><!--class PlanType--><rect fill="#FEFECE" filter="url(#f101tsczhpmlip)" height="61.8359" id="PlanType" style="stroke: #A80036; stroke-width: 1.5;" width="83" x="133.5" y="382.5"/><ellipse cx="148.5" cy="398.5" fill="#EB937F" rx="11" ry="11" style="stroke: #A80036; stroke-width: 1.0;"/><path d="M147.3594,399.2969 L147.3594,401.7969 L151.6875,401.7969 L151.6875,400.875 Q151.6875,400.2656 151.9297,400 Q152.1719,399.7344 152.5469,399.7344 Q152.9219,399.7344 153.1563,400 Q153.3906,400.2656 153.3906,400.875 L153.3906,403.5 L145.3906,403.5 Q144.7656,403.5 144.5078,403.2656 Q144.25,403.0313 144.25,402.6406 Q144.25,402.2656 144.5156,402.0313 Q144.7813,401.7969 145.3906,401.7969 L145.6563,401.7969 L145.6563,395.1406 L145.3906,395.1406 Q144.7656,395.1406 144.5078,394.9063 Q144.25,394.6719 144.25,394.2813 Q144.25,393.9063 144.5078,393.6719 Q144.7656,393.4375 145.3906,393.4375 L153.0156,393.4375 L153.0156,396.0313 Q153.0156,396.6406 152.7891,396.8984 Q152.5625,397.1563 152.1719,397.1563 Q151.7969,397.1563 151.5625,396.8984 Q151.3281,396.6406 151.3281,396.0313 L151.3281,395.1406 L147.3594,395.1406 L147.3594,397.5938 L148.8438,397.5938 Q148.8438,396.9375 148.9688,396.75 Q149.2344,396.3438 149.7031,396.3438 Q150.0781,396.3438 150.3125,396.6016 Q150.5469,396.8594 150.5469,397.4688 L150.5469,399.4375 Q150.5469,399.9844 150.4219,400.1719 Q150.1563,400.5625 149.7031,400.5625 Q149.2344,400.5625 148.9688,400.1563 Q148.8438,399.9688 148.8438,399.2969 L147.3594,399.2969 Z "/><text fill="#000000" font-family="sans-serif" font-size="12" lengthAdjust="spacingAndGlyphs" textLength="51" x="162.5" y="403.4102">PlanType</text><line style="stroke: #A80036; stroke-width: 1.5;" x1="134.5" x2="215.5" y1="414.5" y2="414.5"/><text fill="#000000" font-family="sans-serif" font-size="11" lengthAdjust="spacingAndGlyphs" textLength="17" x="139.5" y="429.9189">IMC</text><line style="stroke: #A80036; stroke-width: 1.5;" x1="134.5" x2="215.5" y1="436.3359" y2="436.3359"/><!--class Plan--><rect fill="#FEFECE" filter="url(#f101tsczhpmlip)" height="103.3438" id="Plan" style="stroke: #A80036; stroke-width: 1.5;" width="83" x="133.5" y="185"/><ellipse cx="160.2" cy="201" fill="#ADD1B2" rx="11" ry="11" style="stroke: #A80036; stroke-width: 1.0;"/><path d="M162.9656,196.875 Q163.1219,196.6563 163.3094,196.5469 Q163.4969,196.4375 163.7156,196.4375 Q164.0906,196.4375 164.325,196.6953 Q164.5594,196.9531 164.5594,197.5625 L164.5594,199.0156 Q164.5594,199.625 164.325,199.8906 Q164.0906,200.1563 163.7156,200.1563 Q163.3719,200.1563 163.1688,199.9531 Q162.9656,199.7656 162.8563,199.25 Q162.8094,198.8906 162.6219,198.7031 Q162.2938,198.3281 161.6844,198.1094 Q161.075,197.8906 160.45,197.8906 Q159.6844,197.8906 159.0516,198.2188 Q158.4188,198.5469 157.9266,199.2969 Q157.4344,200.0469 157.4344,201.0781 L157.4344,202.1719 Q157.4344,203.4063 158.325,204.2266 Q159.2156,205.0469 160.8094,205.0469 Q161.7469,205.0469 162.4031,204.7969 Q162.7938,204.6406 163.2156,204.2031 Q163.4813,203.9375 163.6297,203.8594 Q163.7781,203.7813 163.9813,203.7813 Q164.3094,203.7813 164.5672,204.0391 Q164.825,204.2969 164.825,204.6406 Q164.825,204.9844 164.4813,205.3906 Q163.9813,205.9688 163.1844,206.2969 Q162.1063,206.75 160.8094,206.75 Q159.2938,206.75 158.0906,206.125 Q157.1063,205.625 156.4188,204.5547 Q155.7313,203.4844 155.7313,202.2031 L155.7313,201.0469 Q155.7313,199.7188 156.3484,198.5703 Q156.9656,197.4219 158.0594,196.8047 Q159.1531,196.1875 160.3875,196.1875 Q161.1219,196.1875 161.7703,196.3516 Q162.4188,196.5156 162.9656,196.875 Z "/><text fill="#000000" font-family="sans-serif" font-size="12" lengthAdjust="spacingAndGlyphs" textLength="25" x="176.8" y="205.9102">Plan</text><line style="stroke: #A80036; stroke-width: 1.5;" x1="134.5" x2="215.5" y1="217" y2="217"/><text fill="#000000" font-family="sans-serif" font-size="11" lengthAdjust="spacingAndGlyphs" textLength="45" x="139.5" y="232.4189">Integer ID</text><text fill="#000000" font-family="sans-serif" font-size="11" lengthAdjust="spacingAndGlyphs" textLength="58" x="139.5" y="246.2549">String Name</text><text fill="#000000" font-family="sans-serif" font-size="11" lengthAdjust="spacingAndGlyphs" textLength="71" x="139.5" y="260.0908">PlanType Type</text><text fill="#000000" font-family="sans-serif" font-size="11" lengthAdjust="spacingAndGlyphs" textLength="63" x="139.5" y="273.9268">Profile Profile</text><line style="stroke: #A80036; stroke-width: 1.5;" x1="134.5" x2="215.5" y1="280.3438" y2="280.3438"/><!--class TraitType--><rect fill="#FEFECE" filter="url(#f101tsczhpmlip)" height="89.5078" id="TraitType" style="stroke: #A80036; stroke-width: 1.5;" width="82" x="252" y="191.5"/><ellipse cx="267" cy="207.5" fill="#EB937F" rx="11" ry="11" style="stroke: #A80036; stroke-width: 1.0;"/><path d="M265.8594,208.2969 L265.8594,210.7969 L270.1875,210.7969 L270.1875,209.875 Q270.1875,209.2656 270.4297,209 Q270.6719,208.7344 271.0469,208.7344 Q271.4219,208.7344 271.6563,209 Q271.8906,209.2656 271.8906,209.875 L271.8906,212.5 L263.8906,212.5 Q263.2656,212.5 263.0078,212.2656 Q262.75,212.0313 262.75,211.6406 Q262.75,211.2656 263.0156,211.0313 Q263.2813,210.7969 263.8906,210.7969 L264.1563,210.7969 L264.1563,204.1406 L263.8906,204.1406 Q263.2656,204.1406 263.0078,203.9063 Q262.75,203.6719 262.75,203.2813 Q262.75,202.9063 263.0078,202.6719 Q263.2656,202.4375 263.8906,202.4375 L271.5156,202.4375 L271.5156,205.0313 Q271.5156,205.6406 271.2891,205.8984 Q271.0625,206.1563 270.6719,206.1563 Q270.2969,206.1563 270.0625,205.8984 Q269.8281,205.6406 269.8281,205.0313 L269.8281,204.1406 L265.8594,204.1406 L265.8594,206.5938 L267.3438,206.5938 Q267.3438,205.9375 267.4688,205.75 Q267.7344,205.3438 268.2031,205.3438 Q268.5781,205.3438 268.8125,205.6016 Q269.0469,205.8594 269.0469,206.4688 L269.0469,208.4375 Q269.0469,208.9844 268.9219,209.1719 Q268.6563,209.5625 268.2031,209.5625 Q267.7344,209.5625 267.4688,209.1563 Q267.3438,208.9688 267.3438,208.2969 L265.8594,208.2969 Z "/><text fill="#000000" font-family="sans-serif" font-size="12" lengthAdjust="spacingAndGlyphs" textLength="50" x="281" y="212.4102">TraitType</text><line style="stroke: #A80036; stroke-width: 1.5;" x1="253" x2="333" y1="223.5" y2="223.5"/><text fill="#000000" font-family="sans-serif" font-size="11" lengthAdjust="spacingAndGlyphs" textLength="30" x="258" y="238.9189">POIDS</text><text fill="#000000" font-family="sans-serif" font-size="11" lengthAdjust="spacingAndGlyphs" textLength="34" x="258" y="252.7549">TAILLE</text><text fill="#000000" font-family="sans-serif" font-size="11" lengthAdjust="spacingAndGlyphs" textLength="17" x="258" y="266.5908">IMC</text><line style="stroke: #A80036; stroke-width: 1.5;" x1="253" x2="333" y1="273.0078" y2="273.0078"/><!--class Trait--><rect fill="#FEFECE" filter="url(#f101tsczhpmlip)" height="117.1797" id="Trait" style="stroke: #A80036; stroke-width: 1.5;" width="82" x="193" y="8"/><ellipse cx="219.7" cy="24" fill="#ADD1B2" rx="11" ry="11" style="stroke: #A80036; stroke-width: 1.0;"/><path d="M222.4656,19.875 Q222.6219,19.6563 222.8094,19.5469 Q222.9969,19.4375 223.2156,19.4375 Q223.5906,19.4375 223.825,19.6953 Q224.0594,19.9531 224.0594,20.5625 L224.0594,22.0156 Q224.0594,22.625 223.825,22.8906 Q223.5906,23.1563 223.2156,23.1563 Q222.8719,23.1563 222.6688,22.9531 Q222.4656,22.7656 222.3563,22.25 Q222.3094,21.8906 222.1219,21.7031 Q221.7938,21.3281 221.1844,21.1094 Q220.575,20.8906 219.95,20.8906 Q219.1844,20.8906 218.5516,21.2188 Q217.9188,21.5469 217.4266,22.2969 Q216.9344,23.0469 216.9344,24.0781 L216.9344,25.1719 Q216.9344,26.4063 217.825,27.2266 Q218.7156,28.0469 220.3094,28.0469 Q221.2469,28.0469 221.9031,27.7969 Q222.2938,27.6406 222.7156,27.2031 Q222.9813,26.9375 223.1297,26.8594 Q223.2781,26.7813 223.4813,26.7813 Q223.8094,26.7813 224.0672,27.0391 Q224.325,27.2969 224.325,27.6406 Q224.325,27.9844 223.9813,28.3906 Q223.4813,28.9688 222.6844,29.2969 Q221.6063,29.75 220.3094,29.75 Q218.7938,29.75 217.5906,29.125 Q216.6063,28.625 215.9188,27.5547 Q215.2313,26.4844 215.2313,25.2031 L215.2313,24.0469 Q215.2313,22.7188 215.8484,21.5703 Q216.4656,20.4219 217.5594,19.8047 Q218.6531,19.1875 219.8875,19.1875 Q220.6219,19.1875 221.2703,19.3516 Q221.9188,19.5156 222.4656,19.875 Z "/><text fill="#000000" font-family="sans-serif" font-size="12" lengthAdjust="spacingAndGlyphs" textLength="24" x="236.3" y="28.9102">Trait</text><line style="stroke: #A80036; stroke-width: 1.5;" x1="194" x2="274" y1="40" y2="40"/><text fill="#000000" font-family="sans-serif" font-size="11" lengthAdjust="spacingAndGlyphs" textLength="45" x="199" y="55.4189">Integer ID</text><text fill="#000000" font-family="sans-serif" font-size="11" lengthAdjust="spacingAndGlyphs" textLength="57" x="199" y="69.2549">String value</text><text fill="#000000" font-family="sans-serif" font-size="11" lengthAdjust="spacingAndGlyphs" textLength="70" x="199" y="83.0908">TratType Type</text><text fill="#000000" font-family="sans-serif" font-size="11" lengthAdjust="spacingAndGlyphs" textLength="69" x="199" y="96.9268">DateTime Date</text><text fill="#000000" font-family="sans-serif" font-size="11" lengthAdjust="spacingAndGlyphs" textLength="43" x="199" y="110.7627">Plan Plan</text><line style="stroke: #A80036; stroke-width: 1.5;" x1="194" x2="274" y1="117.1797" y2="117.1797"/><!--link Account to Profile--><path d="M52.2892,288.117 C52.396,306.792 52.5183,328.211 52.6312,347.952 " fill="none" id="Account-Profile" style="stroke: #A80036; stroke-width: 1.0;"/><text fill="#000000" font-family="sans-serif" font-size="13" lengthAdjust="spacingAndGlyphs" textLength="18" x="33.0642" y="309.9963">1.1</text><text fill="#000000" font-family="sans-serif" font-size="13" lengthAdjust="spacingAndGlyphs" textLength="16" x="35.6636" y="336.9626">1.*</text><!--link Plan to PlanType--><path d="M175,288.117 C175,318.603 175,356.4 175,382.2763 " fill="none" id="Plan-PlanType" style="stroke: #A80036; stroke-width: 1.0;"/><text fill="#000000" font-family="sans-serif" font-size="13" lengthAdjust="spacingAndGlyphs" textLength="16" x="157.875" y="309.9963">0.*</text><text fill="#000000" font-family="sans-serif" font-size="13" lengthAdjust="spacingAndGlyphs" textLength="18" x="155.1438" y="371.7343">1.1</text><!--link Plan to Profile--><path d="M139.713,288.117 C126.693,306.792 111.762,328.211 97.9992,347.952 " fill="none" id="Plan-Profile" style="stroke: #A80036; stroke-width: 1.0;"/><text fill="#000000" font-family="sans-serif" font-size="13" lengthAdjust="spacingAndGlyphs" textLength="16" x="117.6258" y="309.9963">0.*</text><text fill="#000000" font-family="sans-serif" font-size="13" lengthAdjust="spacingAndGlyphs" textLength="18" x="84.1616" y="336.9626">1.1</text><!--link Trait to TraitType--><path d="M254.304,125.316 C261.904,146.957 270.409,171.173 277.506,191.381 " fill="none" id="Trait-TraitType" style="stroke: #A80036; stroke-width: 1.0;"/><text fill="#000000" font-family="sans-serif" font-size="13" lengthAdjust="spacingAndGlyphs" textLength="16" x="239.7267" y="146.5467">0.*</text><text fill="#000000" font-family="sans-serif" font-size="13" lengthAdjust="spacingAndGlyphs" textLength="18" x="255.7554" y="180.8069">1.1</text><!--link Trait to Plan--><path d="M213.696,125.316 C206.896,144.679 199.371,166.104 192.779,184.874 " fill="none" id="Trait-Plan" style="stroke: #A80036; stroke-width: 1.0;"/><text fill="#000000" font-family="sans-serif" font-size="13" lengthAdjust="spacingAndGlyphs" textLength="16" x="194.4234" y="146.5467">0.*</text><text fill="#000000" font-family="sans-serif" font-size="13" lengthAdjust="spacingAndGlyphs" textLength="18" x="176.0135" y="173.9848">1.1</text><!--
@startuml

class Account
{
	Integer ID
	string Email
	string Pseudo
	string Password
}

class Profile
{
	Integer ID
	String FirstName
	String LastName
	Integer Age
	String ImageUrl
	Account acount
}

Account "1.1" - - "1.*" Profile

enum PlanType
{
	IMC
}

class Plan
{
	Integer ID
	String Name
	PlanType Type
	Profile Profile
}

Plan "0.*" - - "1.1" PlanType
Plan "0.*" - - "1.1" Profile

enum TraitType
{
	POIDS
	TAILLE
	IMC
}

class Trait
{ 
	Integer ID
	String value
	TratType Type
	DateTime Date
	Plan Plan
}

Trait "0.*" - - "1.1" TraitType
Trait "0.*" - - "1.1" Plan

@enduml

PlantUML version 1.2019.09(Mon Aug 26 18:19:51 CEST 2019)
(GPL source distribution)
Java Runtime: Java(TM) SE Runtime Environment
JVM: Java HotSpot(TM) Client VM
Java Version: 1.8.0_231-b11
Operating System: Windows 10
OS Version: 10.0
Default Encoding: Cp1252
Language: fr
Country: FR
--></g></svg>