<?xml version="1.0" encoding="UTF-8" standalone="no"?><svg xmlns="http://www.w3.org/2000/svg" xmlns:xlink="http://www.w3.org/1999/xlink" contentScriptType="application/ecmascript" contentStyleType="text/css" height="503px" preserveAspectRatio="none" style="width:366px;height:503px;" version="1.1" viewBox="0 0 366 503" width="366px" zoomAndPan="magnify"><defs><filter height="300%" id="f1552f4cp6erls" width="300%" x="-1" y="-1"><feGaussianBlur result="blurOut" stdDeviation="2.0"/><feColorMatrix in="blurOut" result="blurOut2" type="matrix" values="0 0 0 0 0 0 0 0 0 0 0 0 0 0 0 0 0 0 .4 0"/><feOffset dx="4.0" dy="4.0" in="blurOut2" result="blurOut3"/><feBlend in="SourceGraphic" in2="blurOut3" mode="normal"/></filter></defs><g><!--class Acount--><rect fill="#FEFECE" filter="url(#f1552f4cp6erls)" height="103.3438" id="Acount" style="stroke: #A80036; stroke-width: 1.5;" width="92" x="6.5" y="185"/><ellipse cx="31.85" cy="201" fill="#ADD1B2" rx="11" ry="11" style="stroke: #A80036; stroke-width: 1.0;"/><path d="M34.6156,196.875 Q34.7719,196.6563 34.9594,196.5469 Q35.1469,196.4375 35.3656,196.4375 Q35.7406,196.4375 35.975,196.6953 Q36.2094,196.9531 36.2094,197.5625 L36.2094,199.0156 Q36.2094,199.625 35.975,199.8906 Q35.7406,200.1563 35.3656,200.1563 Q35.0219,200.1563 34.8188,199.9531 Q34.6156,199.7656 34.5063,199.25 Q34.4594,198.8906 34.2719,198.7031 Q33.9438,198.3281 33.3344,198.1094 Q32.725,197.8906 32.1,197.8906 Q31.3344,197.8906 30.7016,198.2188 Q30.0688,198.5469 29.5766,199.2969 Q29.0844,200.0469 29.0844,201.0781 L29.0844,202.1719 Q29.0844,203.4063 29.975,204.2266 Q30.8656,205.0469 32.4594,205.0469 Q33.3969,205.0469 34.0531,204.7969 Q34.4438,204.6406 34.8656,204.2031 Q35.1313,203.9375 35.2797,203.8594 Q35.4281,203.7813 35.6313,203.7813 Q35.9594,203.7813 36.2172,204.0391 Q36.475,204.2969 36.475,204.6406 Q36.475,204.9844 36.1313,205.3906 Q35.6313,205.9688 34.8344,206.2969 Q33.7563,206.75 32.4594,206.75 Q30.9438,206.75 29.7406,206.125 Q28.7563,205.625 28.0688,204.5547 Q27.3813,203.4844 27.3813,202.2031 L27.3813,201.0469 Q27.3813,199.7188 27.9984,198.5703 Q28.6156,197.4219 29.7094,196.8047 Q30.8031,196.1875 32.0375,196.1875 Q32.7719,196.1875 33.4203,196.3516 Q34.0688,196.5156 34.6156,196.875 Z "/><text fill="#000000" font-family="sans-serif" font-size="12" lengthAdjust="spacingAndGlyphs" textLength="37" x="48.15" y="205.9102">Acount</text><line style="stroke: #A80036; stroke-width: 1.5;" x1="7.5" x2="97.5" y1="217" y2="217"/><text fill="#000000" font-family="sans-serif" font-size="11" lengthAdjust="spacingAndGlyphs" textLength="45" x="12.5" y="232.4189">Integer ID</text><text fill="#000000" font-family="sans-serif" font-size="11" lengthAdjust="spacingAndGlyphs" textLength="54" x="12.5" y="246.2549">string Email</text><text fill="#000000" font-family="sans-serif" font-size="11" lengthAdjust="spacingAndGlyphs" textLength="66" x="12.5" y="260.0908">string Pseudo</text><text fill="#000000" font-family="sans-serif" font-size="11" lengthAdjust="spacingAndGlyphs" textLength="80" x="12.5" y="273.9268">string Password</text><line style="stroke: #A80036; stroke-width: 1.5;" x1="7.5" x2="97.5" y1="280.3438" y2="280.3438"/><!--class Profile--><rect fill="#FEFECE" filter="url(#f1552f4cp6erls)" height="144.8516" id="Profile" style="stroke: #A80036; stroke-width: 1.5;" width="93" x="6" y="348"/><ellipse cx="32.7" cy="364" fill="#ADD1B2" rx="11" ry="11" style="stroke: #A80036; stroke-width: 1.0;"/><path d="M35.4656,359.875 Q35.6219,359.6563 35.8094,359.5469 Q35.9969,359.4375 36.2156,359.4375 Q36.5906,359.4375 36.825,359.6953 Q37.0594,359.9531 37.0594,360.5625 L37.0594,362.0156 Q37.0594,362.625 36.825,362.8906 Q36.5906,363.1563 36.2156,363.1563 Q35.8719,363.1563 35.6688,362.9531 Q35.4656,362.7656 35.3563,362.25 Q35.3094,361.8906 35.1219,361.7031 Q34.7938,361.3281 34.1844,361.1094 Q33.575,360.8906 32.95,360.8906 Q32.1844,360.8906 31.5516,361.2188 Q30.9188,361.5469 30.4266,362.2969 Q29.9344,363.0469 29.9344,364.0781 L29.9344,365.1719 Q29.9344,366.4063 30.825,367.2266 Q31.7156,368.0469 33.3094,368.0469 Q34.2469,368.0469 34.9031,367.7969 Q35.2938,367.6406 35.7156,367.2031 Q35.9813,366.9375 36.1297,366.8594 Q36.2781,366.7813 36.4813,366.7813 Q36.8094,366.7813 37.0672,367.0391 Q37.325,367.2969 37.325,367.6406 Q37.325,367.9844 36.9813,368.3906 Q36.4813,368.9688 35.6844,369.2969 Q34.6063,369.75 33.3094,369.75 Q31.7938,369.75 30.5906,369.125 Q29.6063,368.625 28.9188,367.5547 Q28.2313,366.4844 28.2313,365.2031 L28.2313,364.0469 Q28.2313,362.7188 28.8484,361.5703 Q29.4656,360.4219 30.5594,359.8047 Q31.6531,359.1875 32.8875,359.1875 Q33.6219,359.1875 34.2703,359.3516 Q34.9188,359.5156 35.4656,359.875 Z "/><text fill="#000000" font-family="sans-serif" font-size="12" lengthAdjust="spacingAndGlyphs" textLength="35" x="49.3" y="368.9102">Profile</text><line style="stroke: #A80036; stroke-width: 1.5;" x1="7" x2="98" y1="380" y2="380"/><text fill="#000000" font-family="sans-serif" font-size="11" lengthAdjust="spacingAndGlyphs" textLength="45" x="12" y="395.4189">Integer ID</text><text fill="#000000" font-family="sans-serif" font-size="11" lengthAdjust="spacingAndGlyphs" textLength="79" x="12" y="409.2549">String FirstName</text><text fill="#000000" font-family="sans-serif" font-size="11" lengthAdjust="spacingAndGlyphs" textLength="79" x="12" y="423.0908">String LastName</text><text fill="#000000" font-family="sans-serif" font-size="11" lengthAdjust="spacingAndGlyphs" textLength="56" x="12" y="436.9268">Integer Age</text><text fill="#000000" font-family="sans-serif" font-size="11" lengthAdjust="spacingAndGlyphs" textLength="72" x="12" y="450.7627">String ImageUrl</text><text fill="#000000" font-family="sans-serif" font-size="11" lengthAdjust="spacingAndGlyphs" textLength="81" x="12" y="464.5986">ProfileType Type</text><text fill="#000000" font-family="sans-serif" font-size="11" lengthAdjust="spacingAndGlyphs" textLength="71" x="12" y="478.4346">Acount acount</text><line style="stroke: #A80036; stroke-width: 1.5;" x1="7" x2="98" y1="484.8516" y2="484.8516"/><!--class ProgramType--><rect fill="#FEFECE" filter="url(#f1552f4cp6erls)" height="61.8359" id="ProgramType" style="stroke: #A80036; stroke-width: 1.5;" width="106" x="134.5" y="389.5"/><ellipse cx="149.5" cy="405.5" fill="#EB937F" rx="11" ry="11" style="stroke: #A80036; stroke-width: 1.0;"/><path d="M148.3594,406.2969 L148.3594,408.7969 L152.6875,408.7969 L152.6875,407.875 Q152.6875,407.2656 152.9297,407 Q153.1719,406.7344 153.5469,406.7344 Q153.9219,406.7344 154.1563,407 Q154.3906,407.2656 154.3906,407.875 L154.3906,410.5 L146.3906,410.5 Q145.7656,410.5 145.5078,410.2656 Q145.25,410.0313 145.25,409.6406 Q145.25,409.2656 145.5156,409.0313 Q145.7813,408.7969 146.3906,408.7969 L146.6563,408.7969 L146.6563,402.1406 L146.3906,402.1406 Q145.7656,402.1406 145.5078,401.9063 Q145.25,401.6719 145.25,401.2813 Q145.25,400.9063 145.5078,400.6719 Q145.7656,400.4375 146.3906,400.4375 L154.0156,400.4375 L154.0156,403.0313 Q154.0156,403.6406 153.7891,403.8984 Q153.5625,404.1563 153.1719,404.1563 Q152.7969,404.1563 152.5625,403.8984 Q152.3281,403.6406 152.3281,403.0313 L152.3281,402.1406 L148.3594,402.1406 L148.3594,404.5938 L149.8438,404.5938 Q149.8438,403.9375 149.9688,403.75 Q150.2344,403.3438 150.7031,403.3438 Q151.0781,403.3438 151.3125,403.6016 Q151.5469,403.8594 151.5469,404.4688 L151.5469,406.4375 Q151.5469,406.9844 151.4219,407.1719 Q151.1563,407.5625 150.7031,407.5625 Q150.2344,407.5625 149.9688,407.1563 Q149.8438,406.9688 149.8438,406.2969 L148.3594,406.2969 Z "/><text fill="#000000" font-family="sans-serif" font-size="12" lengthAdjust="spacingAndGlyphs" textLength="74" x="163.5" y="410.4102">ProgramType</text><line style="stroke: #A80036; stroke-width: 1.5;" x1="135.5" x2="239.5" y1="421.5" y2="421.5"/><text fill="#000000" font-family="sans-serif" font-size="11" lengthAdjust="spacingAndGlyphs" textLength="17" x="140.5" y="436.9189">IMC</text><line style="stroke: #A80036; stroke-width: 1.5;" x1="135.5" x2="239.5" y1="443.3359" y2="443.3359"/><!--class Program--><rect fill="#FEFECE" filter="url(#f1552f4cp6erls)" height="103.3438" id="Program" style="stroke: #A80036; stroke-width: 1.5;" width="103" x="135" y="185"/><ellipse cx="160.35" cy="201" fill="#ADD1B2" rx="11" ry="11" style="stroke: #A80036; stroke-width: 1.0;"/><path d="M163.1156,196.875 Q163.2719,196.6563 163.4594,196.5469 Q163.6469,196.4375 163.8656,196.4375 Q164.2406,196.4375 164.475,196.6953 Q164.7094,196.9531 164.7094,197.5625 L164.7094,199.0156 Q164.7094,199.625 164.475,199.8906 Q164.2406,200.1563 163.8656,200.1563 Q163.5219,200.1563 163.3188,199.9531 Q163.1156,199.7656 163.0063,199.25 Q162.9594,198.8906 162.7719,198.7031 Q162.4438,198.3281 161.8344,198.1094 Q161.225,197.8906 160.6,197.8906 Q159.8344,197.8906 159.2016,198.2188 Q158.5688,198.5469 158.0766,199.2969 Q157.5844,200.0469 157.5844,201.0781 L157.5844,202.1719 Q157.5844,203.4063 158.475,204.2266 Q159.3656,205.0469 160.9594,205.0469 Q161.8969,205.0469 162.5531,204.7969 Q162.9438,204.6406 163.3656,204.2031 Q163.6313,203.9375 163.7797,203.8594 Q163.9281,203.7813 164.1313,203.7813 Q164.4594,203.7813 164.7172,204.0391 Q164.975,204.2969 164.975,204.6406 Q164.975,204.9844 164.6313,205.3906 Q164.1313,205.9688 163.3344,206.2969 Q162.2563,206.75 160.9594,206.75 Q159.4438,206.75 158.2406,206.125 Q157.2563,205.625 156.5688,204.5547 Q155.8813,203.4844 155.8813,202.2031 L155.8813,201.0469 Q155.8813,199.7188 156.4984,198.5703 Q157.1156,197.4219 158.2094,196.8047 Q159.3031,196.1875 160.5375,196.1875 Q161.2719,196.1875 161.9203,196.3516 Q162.5688,196.5156 163.1156,196.875 Z "/><text fill="#000000" font-family="sans-serif" font-size="12" lengthAdjust="spacingAndGlyphs" textLength="48" x="176.65" y="205.9102">Program</text><line style="stroke: #A80036; stroke-width: 1.5;" x1="136" x2="237" y1="217" y2="217"/><text fill="#000000" font-family="sans-serif" font-size="11" lengthAdjust="spacingAndGlyphs" textLength="45" x="141" y="232.4189">Integer ID</text><text fill="#000000" font-family="sans-serif" font-size="11" lengthAdjust="spacingAndGlyphs" textLength="58" x="141" y="246.2549">String Name</text><text fill="#000000" font-family="sans-serif" font-size="11" lengthAdjust="spacingAndGlyphs" textLength="91" x="141" y="260.0908">ProgramType Type</text><text fill="#000000" font-family="sans-serif" font-size="11" lengthAdjust="spacingAndGlyphs" textLength="63" x="141" y="273.9268">Profile Profile</text><line style="stroke: #A80036; stroke-width: 1.5;" x1="136" x2="237" y1="280.3438" y2="280.3438"/><!--class TraitType--><rect fill="#FEFECE" filter="url(#f1552f4cp6erls)" height="75.6719" id="TraitType" style="stroke: #A80036; stroke-width: 1.5;" width="82" x="273.5" y="198.5"/><ellipse cx="288.5" cy="214.5" fill="#EB937F" rx="11" ry="11" style="stroke: #A80036; stroke-width: 1.0;"/><path d="M287.3594,215.2969 L287.3594,217.7969 L291.6875,217.7969 L291.6875,216.875 Q291.6875,216.2656 291.9297,216 Q292.1719,215.7344 292.5469,215.7344 Q292.9219,215.7344 293.1563,216 Q293.3906,216.2656 293.3906,216.875 L293.3906,219.5 L285.3906,219.5 Q284.7656,219.5 284.5078,219.2656 Q284.25,219.0313 284.25,218.6406 Q284.25,218.2656 284.5156,218.0313 Q284.7813,217.7969 285.3906,217.7969 L285.6563,217.7969 L285.6563,211.1406 L285.3906,211.1406 Q284.7656,211.1406 284.5078,210.9063 Q284.25,210.6719 284.25,210.2813 Q284.25,209.9063 284.5078,209.6719 Q284.7656,209.4375 285.3906,209.4375 L293.0156,209.4375 L293.0156,212.0313 Q293.0156,212.6406 292.7891,212.8984 Q292.5625,213.1563 292.1719,213.1563 Q291.7969,213.1563 291.5625,212.8984 Q291.3281,212.6406 291.3281,212.0313 L291.3281,211.1406 L287.3594,211.1406 L287.3594,213.5938 L288.8438,213.5938 Q288.8438,212.9375 288.9688,212.75 Q289.2344,212.3438 289.7031,212.3438 Q290.0781,212.3438 290.3125,212.6016 Q290.5469,212.8594 290.5469,213.4688 L290.5469,215.4375 Q290.5469,215.9844 290.4219,216.1719 Q290.1563,216.5625 289.7031,216.5625 Q289.2344,216.5625 288.9688,216.1563 Q288.8438,215.9688 288.8438,215.2969 L287.3594,215.2969 Z "/><text fill="#000000" font-family="sans-serif" font-size="12" lengthAdjust="spacingAndGlyphs" textLength="50" x="302.5" y="219.4102">TraitType</text><line style="stroke: #A80036; stroke-width: 1.5;" x1="274.5" x2="354.5" y1="230.5" y2="230.5"/><text fill="#000000" font-family="sans-serif" font-size="11" lengthAdjust="spacingAndGlyphs" textLength="30" x="279.5" y="245.9189">POIDS</text><text fill="#000000" font-family="sans-serif" font-size="11" lengthAdjust="spacingAndGlyphs" textLength="34" x="279.5" y="259.7549">TAILLE</text><line style="stroke: #A80036; stroke-width: 1.5;" x1="274.5" x2="354.5" y1="266.1719" y2="266.1719"/><!--class Trait--><rect fill="#FEFECE" filter="url(#f1552f4cp6erls)" height="117.1797" id="Trait" style="stroke: #A80036; stroke-width: 1.5;" width="95" x="203" y="8"/><ellipse cx="235.55" cy="24" fill="#ADD1B2" rx="11" ry="11" style="stroke: #A80036; stroke-width: 1.0;"/><path d="M238.3156,19.875 Q238.4719,19.6563 238.6594,19.5469 Q238.8469,19.4375 239.0656,19.4375 Q239.4406,19.4375 239.675,19.6953 Q239.9094,19.9531 239.9094,20.5625 L239.9094,22.0156 Q239.9094,22.625 239.675,22.8906 Q239.4406,23.1563 239.0656,23.1563 Q238.7219,23.1563 238.5188,22.9531 Q238.3156,22.7656 238.2063,22.25 Q238.1594,21.8906 237.9719,21.7031 Q237.6438,21.3281 237.0344,21.1094 Q236.425,20.8906 235.8,20.8906 Q235.0344,20.8906 234.4016,21.2188 Q233.7688,21.5469 233.2766,22.2969 Q232.7844,23.0469 232.7844,24.0781 L232.7844,25.1719 Q232.7844,26.4063 233.675,27.2266 Q234.5656,28.0469 236.1594,28.0469 Q237.0969,28.0469 237.7531,27.7969 Q238.1438,27.6406 238.5656,27.2031 Q238.8313,26.9375 238.9797,26.8594 Q239.1281,26.7813 239.3313,26.7813 Q239.6594,26.7813 239.9172,27.0391 Q240.175,27.2969 240.175,27.6406 Q240.175,27.9844 239.8313,28.3906 Q239.3313,28.9688 238.5344,29.2969 Q237.4563,29.75 236.1594,29.75 Q234.6438,29.75 233.4406,29.125 Q232.4563,28.625 231.7688,27.5547 Q231.0813,26.4844 231.0813,25.2031 L231.0813,24.0469 Q231.0813,22.7188 231.6984,21.5703 Q232.3156,20.4219 233.4094,19.8047 Q234.5031,19.1875 235.7375,19.1875 Q236.4719,19.1875 237.1203,19.3516 Q237.7688,19.5156 238.3156,19.875 Z "/><text fill="#000000" font-family="sans-serif" font-size="12" lengthAdjust="spacingAndGlyphs" textLength="24" x="253.45" y="28.9102">Trait</text><line style="stroke: #A80036; stroke-width: 1.5;" x1="204" x2="297" y1="40" y2="40"/><text fill="#000000" font-family="sans-serif" font-size="11" lengthAdjust="spacingAndGlyphs" textLength="45" x="209" y="55.4189">Integer ID</text><text fill="#000000" font-family="sans-serif" font-size="11" lengthAdjust="spacingAndGlyphs" textLength="57" x="209" y="69.2549">String value</text><text fill="#000000" font-family="sans-serif" font-size="11" lengthAdjust="spacingAndGlyphs" textLength="70" x="209" y="83.0908">TratType Type</text><text fill="#000000" font-family="sans-serif" font-size="11" lengthAdjust="spacingAndGlyphs" textLength="69" x="209" y="96.9268">DateTime Date</text><text fill="#000000" font-family="sans-serif" font-size="11" lengthAdjust="spacingAndGlyphs" textLength="83" x="209" y="110.7627">Program Program</text><line style="stroke: #A80036; stroke-width: 1.5;" x1="204" x2="297" y1="117.1797" y2="117.1797"/><!--link Acount to Profile--><path d="M52.5,288.197 C52.5,306.709 52.5,328.009 52.5,347.993 " fill="none" id="Acount-Profile" style="stroke: #A80036; stroke-width: 1.0;"/><!--link Program to ProgramType--><path d="M186.779,288.197 C186.957,320.698 187.183,361.794 187.334,389.272 " fill="none" id="Program-ProgramType" style="stroke: #A80036; stroke-width: 1.0;"/><!--link Program to Profile--><path d="M149.174,288.197 C133.685,309.233 115.546,333.87 99.1903,356.085 " fill="none" id="Program-Profile" style="stroke: #A80036; stroke-width: 1.0;"/><!--link Trait to TraitType--><path d="M272.525,125.316 C281.745,149.519 292.193,176.945 300.359,198.38 " fill="none" id="Trait-TraitType" style="stroke: #A80036; stroke-width: 1.0;"/><!--link Trait to Program--><path d="M228.475,125.316 C221.099,144.679 212.937,166.104 205.786,184.874 " fill="none" id="Trait-Program" style="stroke: #A80036; stroke-width: 1.0;"/><!--
@startuml

class Acount
{
	Integer ID
	string Email
	string Pseudo
	string Password
}

class Profile
{
	Integer ID
	String FirstName
	String LastName
	Integer Age
	String ImageUrl
	ProfileType Type
	Acount acount
}

Acount - - Profile

enum ProgramType
{
	IMC
}

class Program
{
	Integer ID
	String Name
	ProgramType Type
	Profile Profile
}

Program - - ProgramType
Program - - Profile

enum TraitType
{
	POIDS
	TAILLE
}

class Trait
{ 
	Integer ID
	String value
	TratType Type
	DateTime Date
	Program Program
}

Trait - - TraitType
Trait - - Program

@enduml

PlantUML version 1.2019.09(Mon Aug 26 18:19:51 CEST 2019)
(GPL source distribution)
Java Runtime: Java(TM) SE Runtime Environment
JVM: Java HotSpot(TM) Client VM
Java Version: 1.8.0_231-b11
Operating System: Windows 10
OS Version: 10.0
Default Encoding: Cp1252
Language: fr
Country: FR
--></g></svg>